<svg id="Logo" xmlns="http://www.w3.org/2000/svg" xmlns:xlink="http://www.w3.org/1999/xlink" viewBox="0 0 512 512"><defs><style>.cls-1{mask:url(#mask);filter:url(#luminosity-noclip-2);}.cls-12,.cls-16,.cls-2,.cls-20,.cls-24,.cls-28,.cls-6,.cls-8{mix-blend-mode:multiply;}.cls-2{fill:url(#linear-gradient);}.cls-3{mask:url(#mask-2);}.cls-4{fill:url(#linear-gradient-2);}.cls-5{mask:url(#mask-3);filter:url(#luminosity-noclip-16);}.cls-6{fill:url(#linear-gradient-3);}.cls-7{mask:url(#mask-4);filter:url(#luminosity-noclip-5);}.cls-8{fill:url(#linear-gradient-4);}.cls-9{mask:url(#mask-5);}.cls-10{fill:url(#linear-gradient-5);}.cls-11{mask:url(#mask-6);filter:url(#luminosity-noclip-7);}.cls-12{fill:url(#linear-gradient-6);}.cls-13{mask:url(#mask-7);}.cls-14{fill:url(#linear-gradient-7);}.cls-15{mask:url(#mask-8);filter:url(#luminosity-noclip-9);}.cls-16{fill:url(#linear-gradient-8);}.cls-17{mask:url(#mask-9);}.cls-18{fill:url(#linear-gradient-9);}.cls-19{mask:url(#mask-10);filter:url(#luminosity-noclip-11);}.cls-20{fill:url(#linear-gradient-10);}.cls-21{mask:url(#mask-11);}.cls-22{fill:url(#linear-gradient-11);}.cls-23{mask:url(#mask-12);filter:url(#luminosity-noclip-13);}.cls-24{fill:url(#linear-gradient-12);}.cls-25{mask:url(#mask-13);}.cls-26{fill:url(#linear-gradient-13);}.cls-27{mask:url(#mask-14);filter:url(#luminosity-noclip-15);}.cls-28{fill:url(#linear-gradient-14);}.cls-29{mask:url(#mask-15);}.cls-30{fill:url(#linear-gradient-15);}.cls-31{mask:url(#mask-16);}.cls-32{fill:url(#linear-gradient-16);}.cls-33{fill:#d5af30;}.cls-34{mask:url(#mask-17);}.cls-35{fill:#010101;}.cls-36{fill:#f598b0;}.cls-37{mask:url(#mask-18);}.cls-38{fill:#f7f5bc;}.cls-39{mask:url(#mask-19);}.cls-40{fill:#fff;}.cls-41{mask:url(#mask-20);}.cls-42{mask:url(#mask-21);}.cls-43{fill:#4fc6e0;}.cls-44{mask:url(#mask-22);}.cls-45{mask:url(#mask-23);}.cls-46{mask:url(#mask-24);}.cls-47{filter:url(#luminosity-noclip-14);}.cls-48{filter:url(#luminosity-noclip-12);}.cls-49{filter:url(#luminosity-noclip-10);}.cls-50{filter:url(#luminosity-noclip-8);}.cls-51{filter:url(#luminosity-noclip-6);}.cls-52{filter:url(#luminosity-noclip-4);}.cls-53{filter:url(#luminosity-noclip-3);}.cls-54{filter:url(#luminosity-noclip);}</style><filter id="luminosity-noclip" x="150.5" y="-8942.66" width="122.12" height="32766" filterUnits="userSpaceOnUse" color-interpolation-filters="sRGB"><feFlood flood-color="#fff" result="bg"/><feBlend in="SourceGraphic" in2="bg"/></filter><mask id="mask" x="150.5" y="-8942.66" width="122.12" height="32766" maskUnits="userSpaceOnUse"><g class="cls-54"/></mask><linearGradient id="linear-gradient" x1="136.83" y1="518.16" x2="536.09" y2="781.52" gradientTransform="matrix(0, -1, -1, 0, 901.95, 710.29)" gradientUnits="userSpaceOnUse"><stop offset="0" stop-color="#fff"/><stop offset="1"/></linearGradient><filter id="luminosity-noclip-2" x="150.5" y="181.12" width="122.12" height="262.47" filterUnits="userSpaceOnUse" color-interpolation-filters="sRGB"><feFlood flood-color="#fff" result="bg"/><feBlend in="SourceGraphic" in2="bg"/></filter><mask id="mask-2" x="150.5" y="181.12" width="122.12" height="262.47" maskUnits="userSpaceOnUse"><g class="cls-1"><rect class="cls-2" x="150.5" y="181.12" width="122.12" height="262.47"/></g></mask><linearGradient id="linear-gradient-2" x1="136.83" y1="518.16" x2="536.09" y2="781.52" gradientTransform="matrix(0, -1, -1, 0, 901.95, 710.29)" gradientUnits="userSpaceOnUse"><stop offset="0" stop-color="#fff"/><stop offset="1" stop-color="#fff"/></linearGradient><filter id="luminosity-noclip-3" x="192.03" y="-8942.66" width="109.72" height="32766" filterUnits="userSpaceOnUse" color-interpolation-filters="sRGB"><feFlood flood-color="#fff" result="bg"/><feBlend in="SourceGraphic" in2="bg"/></filter><mask id="mask-3" x="192.03" y="-8942.66" width="109.72" height="32766" maskUnits="userSpaceOnUse"><g class="cls-53"/></mask><linearGradient id="linear-gradient-3" x1="703.86" y1="1227.39" x2="609.48" y2="603.47" xlink:href="#linear-gradient"/><filter id="luminosity-noclip-4" x="192.03" y="-8942.66" width="119.94" height="32766" filterUnits="userSpaceOnUse" color-interpolation-filters="sRGB"><feFlood flood-color="#fff" result="bg"/><feBlend in="SourceGraphic" in2="bg"/></filter><mask id="mask-4" x="192.03" y="-8942.66" width="119.94" height="32766" maskUnits="userSpaceOnUse"><g class="cls-52"/></mask><linearGradient id="linear-gradient-4" x1="60.01" y1="527.53" x2="640.73" y2="708.58" xlink:href="#linear-gradient"/><filter id="luminosity-noclip-5" x="192.03" y="71.67" width="119.94" height="371.92" filterUnits="userSpaceOnUse" color-interpolation-filters="sRGB"><feFlood flood-color="#fff" result="bg"/><feBlend in="SourceGraphic" in2="bg"/></filter><mask id="mask-5" x="192.03" y="71.67" width="119.94" height="371.92" maskUnits="userSpaceOnUse"><g class="cls-7"><rect class="cls-8" x="192.03" y="71.67" width="119.94" height="371.92"/></g></mask><linearGradient id="linear-gradient-5" x1="60.01" y1="527.53" x2="640.73" y2="708.58" xlink:href="#linear-gradient-2"/><filter id="luminosity-noclip-6" x="150.5" y="-8942.66" width="88.17" height="32766" filterUnits="userSpaceOnUse" color-interpolation-filters="sRGB"><feFlood flood-color="#fff" result="bg"/><feBlend in="SourceGraphic" in2="bg"/></filter><mask id="mask-6" x="150.5" y="-8942.66" width="88.17" height="32766" maskUnits="userSpaceOnUse"><g class="cls-51"/></mask><linearGradient id="linear-gradient-6" x1="614.5" y1="1240.9" x2="520.12" y2="616.99" xlink:href="#linear-gradient"/><filter id="luminosity-noclip-7" x="150.5" y="102.49" width="88.17" height="148.01" filterUnits="userSpaceOnUse" color-interpolation-filters="sRGB"><feFlood flood-color="#fff" result="bg"/><feBlend in="SourceGraphic" in2="bg"/></filter><mask id="mask-7" x="150.5" y="102.49" width="88.17" height="148.01" maskUnits="userSpaceOnUse"><g class="cls-11"><rect class="cls-12" x="150.5" y="102.49" width="88.17" height="148.01"/></g></mask><linearGradient id="linear-gradient-7" x1="614.5" y1="1240.9" x2="520.12" y2="616.99" xlink:href="#linear-gradient-2"/><filter id="luminosity-noclip-8" x="192.03" y="-8942.66" width="105.89" height="32766" filterUnits="userSpaceOnUse" color-interpolation-filters="sRGB"><feFlood flood-color="#fff" result="bg"/><feBlend in="SourceGraphic" in2="bg"/></filter><mask id="mask-8" x="192.03" y="-8942.66" width="105.89" height="32766" maskUnits="userSpaceOnUse"><g class="cls-50"/></mask><linearGradient id="linear-gradient-8" x1="705.36" y1="752.81" x2="318.62" y2="612.37" xlink:href="#linear-gradient"/><filter id="luminosity-noclip-9" x="192.03" y="102.49" width="105.89" height="332.68" filterUnits="userSpaceOnUse" color-interpolation-filters="sRGB"><feFlood flood-color="#fff" result="bg"/><feBlend in="SourceGraphic" in2="bg"/></filter><mask id="mask-9" x="192.03" y="102.49" width="105.89" height="332.68" maskUnits="userSpaceOnUse"><g class="cls-15"><rect class="cls-16" x="192.03" y="102.49" width="105.89" height="332.68"/></g></mask><linearGradient id="linear-gradient-9" x1="705.36" y1="752.81" x2="318.62" y2="612.37" xlink:href="#linear-gradient-2"/><filter id="luminosity-noclip-10" x="253.24" y="-8942.66" width="109.01" height="32766" filterUnits="userSpaceOnUse" color-interpolation-filters="sRGB"><feFlood flood-color="#fff" result="bg"/><feBlend in="SourceGraphic" in2="bg"/></filter><mask id="mask-10" x="253.24" y="-8942.66" width="109.01" height="32766" maskUnits="userSpaceOnUse"><g class="cls-49"/></mask><linearGradient id="linear-gradient-10" x1="1016.55" y1="678.94" x2="333.49" y2="573.36" xlink:href="#linear-gradient"/><filter id="luminosity-noclip-11" x="253.24" y="40.24" width="109.01" height="403.35" filterUnits="userSpaceOnUse" color-interpolation-filters="sRGB"><feFlood flood-color="#fff" result="bg"/><feBlend in="SourceGraphic" in2="bg"/></filter><mask id="mask-11" x="253.24" y="40.24" width="109.01" height="403.35" maskUnits="userSpaceOnUse"><g class="cls-19"><rect class="cls-20" x="253.24" y="40.24" width="109.01" height="403.35"/></g></mask><linearGradient id="linear-gradient-11" x1="1016.55" y1="678.94" x2="333.49" y2="573.36" xlink:href="#linear-gradient-2"/><filter id="luminosity-noclip-12" x="149.76" y="-8942.66" width="109.01" height="32766" filterUnits="userSpaceOnUse" color-interpolation-filters="sRGB"><feFlood flood-color="#fff" result="bg"/><feBlend in="SourceGraphic" in2="bg"/></filter><mask id="mask-12" x="149.76" y="-8942.66" width="109.01" height="32766" maskUnits="userSpaceOnUse"><g class="cls-48"/></mask><linearGradient id="linear-gradient-12" x1="463.8" y1="1263.7" x2="369.42" y2="639.78" xlink:href="#linear-gradient"/><filter id="luminosity-noclip-13" x="149.76" y="220.64" width="109.01" height="222.95" filterUnits="userSpaceOnUse" color-interpolation-filters="sRGB"><feFlood flood-color="#fff" result="bg"/><feBlend in="SourceGraphic" in2="bg"/></filter><mask id="mask-13" x="149.76" y="220.64" width="109.01" height="222.95" maskUnits="userSpaceOnUse"><g class="cls-23"><rect class="cls-24" x="149.76" y="220.64" width="109.01" height="222.95"/></g></mask><linearGradient id="linear-gradient-13" x1="463.8" y1="1263.7" x2="369.42" y2="639.78" xlink:href="#linear-gradient-2"/><filter id="luminosity-noclip-14" x="150.5" y="-8942.66" width="116.48" height="32766" filterUnits="userSpaceOnUse" color-interpolation-filters="sRGB"><feFlood flood-color="#fff" result="bg"/><feBlend in="SourceGraphic" in2="bg"/></filter><mask id="mask-14" x="150.5" y="-8942.66" width="116.48" height="32766" maskUnits="userSpaceOnUse"><g class="cls-47"/></mask><linearGradient id="linear-gradient-14" x1="524.81" y1="785.8" x2="312.83" y2="651.94" xlink:href="#linear-gradient"/><filter id="luminosity-noclip-15" x="150.5" y="220.64" width="116.48" height="222.95" filterUnits="userSpaceOnUse" color-interpolation-filters="sRGB"><feFlood flood-color="#fff" result="bg"/><feBlend in="SourceGraphic" in2="bg"/></filter><mask id="mask-15" x="150.5" y="220.64" width="116.48" height="222.95" maskUnits="userSpaceOnUse"><g class="cls-27"><rect class="cls-28" x="150.5" y="220.64" width="116.48" height="222.95"/></g></mask><linearGradient id="linear-gradient-15" x1="524.81" y1="785.8" x2="312.83" y2="651.94" xlink:href="#linear-gradient-2"/><filter id="luminosity-noclip-16" x="192.03" y="40.24" width="109.72" height="105.55" filterUnits="userSpaceOnUse" color-interpolation-filters="sRGB"><feFlood flood-color="#fff" result="bg"/><feBlend in="SourceGraphic" in2="bg"/></filter><mask id="mask-16" x="192.03" y="40.24" width="109.72" height="105.55" maskUnits="userSpaceOnUse"><g class="cls-5"><rect class="cls-6" x="192.03" y="40.24" width="109.72" height="105.55"/></g></mask><linearGradient id="linear-gradient-16" x1="703.86" y1="1227.39" x2="609.48" y2="603.47" xlink:href="#linear-gradient-2"/><mask id="mask-17" x="150.5" y="181.12" width="122.12" height="262.47" maskUnits="userSpaceOnUse"><g id="id26"><g class="cls-3"><rect class="cls-4" x="150.5" y="181.12" width="122.12" height="262.47"/></g></g></mask><mask id="mask-18" x="149.76" y="220.64" width="109.01" height="222.95" maskUnits="userSpaceOnUse"><g id="id28"><g class="cls-25"><rect class="cls-26" x="149.76" y="220.64" width="109.01" height="222.95"/></g></g></mask><mask id="mask-19" x="150.5" y="220.64" width="116.48" height="222.95" maskUnits="userSpaceOnUse"><g id="id30"><g class="cls-29"><rect class="cls-30" x="150.5" y="220.64" width="116.48" height="222.95"/></g></g></mask><mask id="mask-20" x="192.03" y="40.24" width="109.72" height="105.55" maskUnits="userSpaceOnUse"><g id="id20"><g class="cls-31"><rect class="cls-32" x="192.03" y="40.24" width="109.72" height="105.55"/></g></g></mask><mask id="mask-21" x="192.03" y="71.67" width="119.94" height="371.92" maskUnits="userSpaceOnUse"><g id="id22"><g class="cls-9"><rect class="cls-10" x="192.03" y="71.67" width="119.94" height="371.92"/></g></g></mask><mask id="mask-22" x="150.5" y="102.49" width="88.17" height="148.01" maskUnits="userSpaceOnUse"><g id="id24"><g class="cls-13"><rect class="cls-14" x="150.5" y="102.49" width="88.17" height="148.01"/></g></g></mask><mask id="mask-23" x="192.03" y="102.49" width="105.89" height="332.68" maskUnits="userSpaceOnUse"><g id="id32"><g class="cls-17"><rect class="cls-18" x="192.03" y="102.49" width="105.89" height="332.68"/></g></g></mask><mask id="mask-24" x="253.24" y="40.24" width="109.01" height="403.35" maskUnits="userSpaceOnUse"><g id="id34"><g class="cls-21"><rect class="cls-22" x="253.24" y="40.24" width="109.01" height="403.35"/></g></g></mask></defs><path class="cls-33" d="M429,468.16c-20.85-1.1-90.41-1.9-173-1.9s-152.16.8-173,1.9v1.38c20.85,1.1,90.41,1.91,173,1.91s152.16-.81,173-1.91Z"/><g class="cls-34"><path class="cls-35" d="M157.19,181.43A243.62,243.62,0,0,0,150.82,221,180.45,180.45,0,0,1,258.45,443.28h0A209.42,209.42,0,0,0,157.19,181.43Z"/></g><path class="cls-36" d="M266.67,389.31A180.25,180.25,0,0,0,150.82,221q-.75,9.54-.75,19.28a244.12,244.12,0,0,0,108.38,203,179.83,179.83,0,0,0,8.22-54Z"/><g class="cls-37"><path class="cls-38" d="M201,250.2A180,180,0,0,0,150.82,221q-.75,9.54-.75,19.28a244.12,244.12,0,0,0,108.38,203c-25.94-34.89-64-111.47-57.45-193.08Z"/></g><g class="cls-39"><path class="cls-40" d="M212.46,263.33a177.59,177.59,0,0,1,52.19,126c0,17.19-1.31,37.5-6.2,54A180.45,180.45,0,0,0,150.82,221C173.21,229.91,195.4,246.27,212.46,263.33Z"/></g><path class="cls-36" d="M192.34,102.81a253.33,253.33,0,0,1,89.92,118.37,252.1,252.1,0,0,1,15.35,86.91,254.24,254.24,0,0,1-2.32,34.34c-.41,3-.87,6-1.39,9A250.5,250.5,0,0,1,282.28,395a252.09,252.09,0,0,1-23.83,48.32,245.74,245.74,0,0,0,64.35-67c2-3,3.88-6.14,5.72-9.27A243.1,243.1,0,0,0,355,301.62,244.59,244.59,0,0,0,263.88,47.88q-5.06-3.8-10.33-7.33a245.91,245.91,0,0,0-61.21,62.26Z"/><g class="cls-41"><path class="cls-38" d="M192.34,102.81a253.82,253.82,0,0,1,46,42.67c15.3-22,35.93-43.23,63.08-62.82q-8-9.14-16.88-17.45a246.63,246.63,0,0,0-20.68-17.33q-5.06-3.8-10.33-7.33a245.91,245.91,0,0,0-61.21,62.26Z"/></g><g class="cls-42"><path class="cls-36" d="M192.34,102.81a253.33,253.33,0,0,1,89.92,118.37,252.1,252.1,0,0,1,15.35,86.91,254.24,254.24,0,0,1-2.32,34.34c-.41,3-.87,6-1.39,9A250.5,250.5,0,0,1,282.28,395a252.09,252.09,0,0,1-23.83,48.32,275.28,275.28,0,0,0,29.53-51,273.81,273.81,0,0,0,15.85-46.66c.79-3.22,1.52-6.48,2.18-9.75a278.27,278.27,0,0,0,5-37.33,276.08,276.08,0,0,0-10.42-96A277.34,277.34,0,0,0,217.22,72a245.43,245.43,0,0,0-24.88,30.83Z"/></g><path class="cls-43" d="M297.61,308.09a252.1,252.1,0,0,0-15.35-86.91,253.33,253.33,0,0,0-89.92-118.37A242.93,242.93,0,0,0,150.82,221,180.45,180.45,0,0,1,258.45,443.28,252.09,252.09,0,0,0,282.28,395a250.5,250.5,0,0,0,11.62-43.5c.52-3,1-6,1.39-9a254.24,254.24,0,0,0,2.32-34.34Z"/><g class="cls-44"><path class="cls-38" d="M238.36,145.48a253.82,253.82,0,0,0-46-42.67A242.93,242.93,0,0,0,150.82,221,180,180,0,0,1,201,250.2a210.16,210.16,0,0,1,37.36-104.72Z"/></g><g class="cls-45"><path class="cls-40" d="M295.29,342.43a254.24,254.24,0,0,0,2.32-34.34,252.1,252.1,0,0,0-15.35-86.91,253.33,253.33,0,0,0-89.92-118.37c39.9,29.22,71,72.56,88,119.07,1,2.74,2,5.5,2.86,8.27a250.75,250.75,0,0,1,12.35,77.94q0,12.66-1.26,25.28c-.29,2.94-.64,5.86-1,8.78s-.87,6-1.39,9c0,.1,0,.2,0,.3a311.7,311.7,0,0,1-10.73,41.22c-5,15.25-11.15,30.55-17.55,42.23A251.75,251.75,0,0,0,282.28,395a250.5,250.5,0,0,0,11.62-43.5c.52-3,1-6,1.39-9Z"/></g><g class="cls-46"><path class="cls-40" d="M319.05,378.28a292.93,292.93,0,0,1-26.43,33.05,282.86,282.86,0,0,1-34.17,31.95,245.74,245.74,0,0,0,64.35-67c2-3,3.88-6.14,5.72-9.27A243.1,243.1,0,0,0,355,301.62,244.59,244.59,0,0,0,263.88,47.88q-5.06-3.8-10.33-7.33,5.28,3.86,10.33,7.93A265.4,265.4,0,0,1,283.73,66.2c34.55,34.07,58.06,75.73,68.71,117.46.14.56.28,1.11.41,1.66A244.07,244.07,0,0,1,353,301.14,240.51,240.51,0,0,1,326.77,366c-1.52,2.61-3.09,5.17-4.71,7.71-.32.5-.63,1-1,1.48-.66,1-1.34,2.07-2.05,3.11Z"/></g></svg>